# xmcd
#
# Track frame offsets: 
#        150
#        18447
#        34850
#        48537
#        67752
#        86485
#        105562
#        121779
#        139070
#        152920
#        165910
#        178690
#
# Disc length: 2656 seconds
#
# Revision: 3
# Processed by: cddbd v1.5.2PL0 Copyright (c) Steve Scherf et al.
# Submitted via: ExactAudioCopy v0.95b4
#
DISCID=8f0a5e0c
DTITLE=Os Nativos - Canta Catarina
DYEAR=1900
DGENRE=
TTITLE0=Canta Catarina
TTITLE1=A Primeira Vez
TTITLE2=Correntina
TTITLE3=Chama
TTITLE4=Meu Pago
TTITLE5=Recuerdos de Ypacarai
TTITLE6=Bugio Da Capela
TTITLE7=Maria Bonita
TTITLE8=Baile de Cola Atada
TTITLE9=Tio Amadeus
TTITLE10=Sirigaita
TTITLE11=Castelhana
EXTD=
EXTT0=Elton Saldanha
EXTT1=Elton Saldanha
EXTT2=Elton Saldanha/Bonitinho
EXTT3=Amaro Peres
EXTT4=Deroi Marques/Jos  D.Dos Santos
EXTT5=Dem trio Ortiz/Zulame De Mirkin
EXTT6=Amaro Peres
EXTT7=Agostin Lara
EXTT8=Pedro Orta a
EXTT9=Ademar Antunes
EXTT10=Rodrigo Pires
EXTT11=Elton Saldanha/Rui Biriva
PLAYORDER=
